<svg width="512" height="512" xmlns="http://www.w3.org/2000/svg">

 <g>
  <title>background</title>
  <rect fill="none" id="canvas_background" height="402" width="582" y="-1" x="-1"/>
 </g>
 <g>
  <title>Layer 1</title>
  <path id="svg_2" fill="#3180ce" d="m378.791,42.453l-246.583,0l-123.291,213.547l123.291,213.548l246.583,0l123.292,-213.548l-123.292,-213.547zm-17.32,397.095l-211.942,0l-105.971,-183.548l105.971,-183.547l211.942,0l105.971,183.547l-105.971,183.548z"/>
  <polygon id="svg_3" points="361.6990051269531,72.05800008773804 149.30099487304688,72.05800008773804 43.10200119018555,255.99999380111694 149.30099487304688,439.9419951438904 361.6990051269531,439.9419951438904 467.89801025390625,255.99999380111694 " fill="#1d1e16"/>
  <path id="svg_5" fill="#3180ce" d="m154.108,177.629l39.716,112.139l39.503,-112.139l41.84,0l0,154.617l-31.964,0l0,-42.265l3.186,-72.955l-41.734,115.219l-21.875,0l-41.627,-115.113l3.186,72.848l0,42.265l-31.858,0l0,-154.616l41.627,0z"/>
  <path id="svg_6" fill="#3180ce" d="m369.786,320.564c-7.576,9.204 -18.053,13.806 -31.434,13.806c-12.318,0 -21.716,-3.539 -28.194,-10.619c-6.478,-7.079 -9.787,-17.451 -9.929,-31.115l0,-75.29l30.689,0l0,74.314c0,11.979 5.451,17.967 16.354,17.967c10.406,0 17.557,-3.614 21.45,-10.845l0,-81.437l30.796,0l0,114.9l-28.884,0l-0.848,-11.681z"/>
 </g>
</svg>